<mxfile host="Electron" modified="2023-08-16T15:24:31.509Z" agent="Mozilla/5.0 (Windows NT 10.0; Win64; x64) AppleWebKit/537.36 (KHTML, like Gecko) draw.io/21.6.8 Chrome/114.0.5735.289 Electron/25.5.0 Safari/537.36" etag="GoqdvGoW15EBNosz8_eK" version="21.6.8" type="device">
  <diagram name="PÃ¡gina-1" id="XCF_0uRsOfHb_sA6c_6i">
    <mxGraphModel dx="1877" dy="629" grid="1" gridSize="10" guides="1" tooltips="1" connect="1" arrows="1" fold="1" page="1" pageScale="1" pageWidth="827" pageHeight="1169" math="0" shadow="0">
      <root>
        <mxCell id="0" />
        <mxCell id="1" parent="0" />
        <mxCell id="yJAIOm2G7JKSOoM4RnI4-1" value="&lt;font style=&quot;font-size: 18px;&quot;&gt;&lt;u&gt;:Sistema&lt;/u&gt;&lt;/font&gt;" style="rounded=0;whiteSpace=wrap;html=1;" vertex="1" parent="1">
          <mxGeometry x="210" y="240" width="120" height="60" as="geometry" />
        </mxCell>
        <mxCell id="yJAIOm2G7JKSOoM4RnI4-2" value="" style="endArrow=none;html=1;rounded=0;entryX=0;entryY=0.5;entryDx=0;entryDy=0;" edge="1" parent="1">
          <mxGeometry width="50" height="50" relative="1" as="geometry">
            <mxPoint x="-100" y="270" as="sourcePoint" />
            <mxPoint x="210" y="271" as="targetPoint" />
          </mxGeometry>
        </mxCell>
        <mxCell id="yJAIOm2G7JKSOoM4RnI4-3" value="&lt;font style=&quot;font-size: 14px;&quot;&gt;listarProvDep(): Set &amp;lt;String&amp;gt;&lt;/font&gt;" style="text;html=1;strokeColor=none;fillColor=none;align=center;verticalAlign=middle;whiteSpace=wrap;rounded=0;" vertex="1" parent="1">
          <mxGeometry x="-100" y="210" width="300" height="30" as="geometry" />
        </mxCell>
        <mxCell id="yJAIOm2G7JKSOoM4RnI4-4" value="" style="endArrow=classic;html=1;rounded=0;" edge="1" parent="1">
          <mxGeometry width="50" height="50" relative="1" as="geometry">
            <mxPoint x="10" y="251" as="sourcePoint" />
            <mxPoint x="100" y="251" as="targetPoint" />
          </mxGeometry>
        </mxCell>
        <mxCell id="yJAIOm2G7JKSOoM4RnI4-5" value="" style="endArrow=none;html=1;rounded=0;entryX=1;entryY=0.5;entryDx=0;entryDy=0;" edge="1" parent="1" target="yJAIOm2G7JKSOoM4RnI4-1">
          <mxGeometry width="50" height="50" relative="1" as="geometry">
            <mxPoint x="760" y="270" as="sourcePoint" />
            <mxPoint x="280" y="300" as="targetPoint" />
          </mxGeometry>
        </mxCell>
        <mxCell id="yJAIOm2G7JKSOoM4RnI4-6" value="&lt;font style=&quot;font-size: 18px;&quot;&gt;&lt;u&gt;u:Usuario&lt;/u&gt;&lt;/font&gt;" style="rounded=0;whiteSpace=wrap;html=1;" vertex="1" parent="1">
          <mxGeometry x="760" y="340" width="120" height="60" as="geometry" />
        </mxCell>
        <mxCell id="yJAIOm2G7JKSOoM4RnI4-7" value="&lt;font style=&quot;font-size: 14px;&quot;&gt;1* [foreach] : u := next()&lt;/font&gt;" style="text;html=1;strokeColor=none;fillColor=none;align=center;verticalAlign=middle;whiteSpace=wrap;rounded=0;" vertex="1" parent="1">
          <mxGeometry x="450" y="200" width="190" height="30" as="geometry" />
        </mxCell>
        <mxCell id="yJAIOm2G7JKSOoM4RnI4-8" value="" style="endArrow=classic;html=1;rounded=0;" edge="1" parent="1">
          <mxGeometry width="50" height="50" relative="1" as="geometry">
            <mxPoint x="500" y="240" as="sourcePoint" />
            <mxPoint x="590" y="240" as="targetPoint" />
          </mxGeometry>
        </mxCell>
        <mxCell id="yJAIOm2G7JKSOoM4RnI4-13" value="" style="endArrow=none;html=1;rounded=0;entryX=0.75;entryY=1;entryDx=0;entryDy=0;exitX=0;exitY=0.5;exitDx=0;exitDy=0;" edge="1" parent="1" target="yJAIOm2G7JKSOoM4RnI4-1" source="yJAIOm2G7JKSOoM4RnI4-6">
          <mxGeometry width="50" height="50" relative="1" as="geometry">
            <mxPoint x="770" y="470" as="sourcePoint" />
            <mxPoint x="480" y="320" as="targetPoint" />
            <Array as="points">
              <mxPoint x="300" y="370" />
            </Array>
          </mxGeometry>
        </mxCell>
        <mxCell id="yJAIOm2G7JKSOoM4RnI4-14" value="" style="rounded=0;whiteSpace=wrap;html=1;" vertex="1" parent="1">
          <mxGeometry x="770" y="230" width="120" height="60" as="geometry" />
        </mxCell>
        <mxCell id="yJAIOm2G7JKSOoM4RnI4-15" value="&lt;font style=&quot;font-size: 18px;&quot;&gt;&lt;u&gt;:Usuario&lt;/u&gt;&lt;/font&gt;" style="rounded=0;whiteSpace=wrap;html=1;" vertex="1" parent="1">
          <mxGeometry x="760" y="240" width="120" height="60" as="geometry" />
        </mxCell>
        <mxCell id="yJAIOm2G7JKSOoM4RnI4-16" value="&lt;font style=&quot;font-size: 14px;&quot;&gt;2* [si es proveedor]: getNick() : String&lt;/font&gt;" style="text;html=1;strokeColor=none;fillColor=none;align=center;verticalAlign=middle;whiteSpace=wrap;rounded=0;" vertex="1" parent="1">
          <mxGeometry x="430" y="320" width="240" height="30" as="geometry" />
        </mxCell>
        <mxCell id="yJAIOm2G7JKSOoM4RnI4-17" value="" style="endArrow=classic;html=1;rounded=0;" edge="1" parent="1">
          <mxGeometry width="50" height="50" relative="1" as="geometry">
            <mxPoint x="475" y="350" as="sourcePoint" />
            <mxPoint x="565" y="350" as="targetPoint" />
          </mxGeometry>
        </mxCell>
        <mxCell id="yJAIOm2G7JKSOoM4RnI4-18" value="" style="endArrow=none;html=1;rounded=0;entryX=0.5;entryY=1;entryDx=0;entryDy=0;" edge="1" parent="1" target="yJAIOm2G7JKSOoM4RnI4-1">
          <mxGeometry width="50" height="50" relative="1" as="geometry">
            <mxPoint x="760" y="460" as="sourcePoint" />
            <mxPoint x="510" y="320" as="targetPoint" />
            <Array as="points">
              <mxPoint x="270" y="460" />
            </Array>
          </mxGeometry>
        </mxCell>
        <mxCell id="yJAIOm2G7JKSOoM4RnI4-19" value="" style="rounded=0;whiteSpace=wrap;html=1;" vertex="1" parent="1">
          <mxGeometry x="770" y="420" width="150" height="60" as="geometry" />
        </mxCell>
        <mxCell id="yJAIOm2G7JKSOoM4RnI4-20" value="&lt;span style=&quot;font-size: 18px;&quot;&gt;&lt;u&gt;:Departamento&lt;/u&gt;&lt;/span&gt;" style="rounded=0;whiteSpace=wrap;html=1;" vertex="1" parent="1">
          <mxGeometry x="760" y="430" width="150" height="60" as="geometry" />
        </mxCell>
        <mxCell id="yJAIOm2G7JKSOoM4RnI4-21" value="&lt;font style=&quot;font-size: 14px;&quot;&gt;3* [foreach] : u := next()&lt;/font&gt;" style="text;html=1;strokeColor=none;fillColor=none;align=center;verticalAlign=middle;whiteSpace=wrap;rounded=0;" vertex="1" parent="1">
          <mxGeometry x="430" y="410" width="190" height="30" as="geometry" />
        </mxCell>
        <mxCell id="yJAIOm2G7JKSOoM4RnI4-22" value="" style="endArrow=classic;html=1;rounded=0;" edge="1" parent="1">
          <mxGeometry width="50" height="50" relative="1" as="geometry">
            <mxPoint x="480" y="450" as="sourcePoint" />
            <mxPoint x="570" y="450" as="targetPoint" />
          </mxGeometry>
        </mxCell>
        <mxCell id="yJAIOm2G7JKSOoM4RnI4-23" value="&lt;span style=&quot;font-size: 18px;&quot;&gt;&lt;u&gt;:Departamento&lt;/u&gt;&lt;/span&gt;" style="rounded=0;whiteSpace=wrap;html=1;" vertex="1" parent="1">
          <mxGeometry x="760" y="525" width="150" height="60" as="geometry" />
        </mxCell>
        <mxCell id="yJAIOm2G7JKSOoM4RnI4-24" value="" style="endArrow=none;html=1;rounded=0;entryX=0.25;entryY=1;entryDx=0;entryDy=0;exitX=0;exitY=0.5;exitDx=0;exitDy=0;" edge="1" parent="1" source="yJAIOm2G7JKSOoM4RnI4-23" target="yJAIOm2G7JKSOoM4RnI4-1">
          <mxGeometry width="50" height="50" relative="1" as="geometry">
            <mxPoint x="460" y="370" as="sourcePoint" />
            <mxPoint x="510" y="320" as="targetPoint" />
            <Array as="points">
              <mxPoint x="240" y="555" />
            </Array>
          </mxGeometry>
        </mxCell>
        <mxCell id="yJAIOm2G7JKSOoM4RnI4-27" value="&lt;font style=&quot;font-size: 14px;&quot;&gt;4*: getNom() : String&lt;/font&gt;" style="text;html=1;strokeColor=none;fillColor=none;align=center;verticalAlign=middle;whiteSpace=wrap;rounded=0;" vertex="1" parent="1">
          <mxGeometry x="390" y="500" width="240" height="30" as="geometry" />
        </mxCell>
        <mxCell id="yJAIOm2G7JKSOoM4RnI4-28" value="" style="endArrow=classic;html=1;rounded=0;" edge="1" parent="1">
          <mxGeometry width="50" height="50" relative="1" as="geometry">
            <mxPoint x="465" y="540" as="sourcePoint" />
            <mxPoint x="555" y="540" as="targetPoint" />
          </mxGeometry>
        </mxCell>
        <mxCell id="yJAIOm2G7JKSOoM4RnI4-29" value="El sistema devuelve una lista con todos los proveedores y departamentos" style="shape=note;whiteSpace=wrap;html=1;backgroundOutline=1;darkOpacity=0.05;fillColor=#fff2cc;strokeColor=#d6b656;" vertex="1" parent="1">
          <mxGeometry x="270" y="20" width="120" height="140" as="geometry" />
        </mxCell>
        <mxCell id="yJAIOm2G7JKSOoM4RnI4-30" value="" style="endArrow=none;html=1;rounded=0;entryX=0.5;entryY=1;entryDx=0;entryDy=0;entryPerimeter=0;exitX=0.5;exitY=0;exitDx=0;exitDy=0;" edge="1" parent="1" source="yJAIOm2G7JKSOoM4RnI4-1" target="yJAIOm2G7JKSOoM4RnI4-29">
          <mxGeometry width="50" height="50" relative="1" as="geometry">
            <mxPoint x="460" y="370" as="sourcePoint" />
            <mxPoint x="510" y="320" as="targetPoint" />
          </mxGeometry>
        </mxCell>
      </root>
    </mxGraphModel>
  </diagram>
</mxfile>
